#N canvas 275 23 891 615 10;
#X obj 115 159 spigot;
#X obj 293 158 spigot;
#X obj 115 210 s out3;
#X obj 293 210 s out4;
#X obj -42 334 r out1;
#X obj 74 333 r out2;
#X obj 177 329 r out3;
#X obj 251 326 r out4;
#X obj -42 366 outlet;
#X obj 74 363 outlet;
#X obj 177 361 outlet;
#X obj 251 361 outlet;
#X text 166 312 Average F1;
#X text 245 309 Average F2;
#X obj 115 183 average 100;
#X text -91 312 Formant 1 Histogram;
#X text 36 314 Formant 2 Histogram;
#X obj 205 58 r Continous;
#X obj 393 209 s samplestdF2;
#X obj 378 231 s popstdF2;
#X obj 86 238 s samplestdF1;
#X obj 71 262 s popstdF1;
#X obj 324 327 r popstdF1;
#X obj 402 326 r samplestdF1;
#X obj 499 325 r popstdF2;
#X obj 577 325 r samplestdF2;
#X obj 324 360 outlet;
#X obj 402 358 outlet;
#X obj 499 355 outlet;
#X obj 577 355 outlet;
#X text 321 309 Pop std F1;
#X text 401 308 Sample std F1;
#X text 501 301 Pop std F2;
#X text 577 300 Sample std F2;
#X obj 293 182 average 100;
#X obj 378 175 std;
#X obj 71 176 std;
#N canvas 562 76 627 519 histoFormant 0;
#X text 35 123 F1 range >>;
#X obj 94 222 abs;
#X obj 187 221 abs;
#X obj 124 265 /;
#X obj 94 197 env~ 8192;
#X obj 187 196 env~ 8192;
#X obj 124 292 * 600;
#X obj 124 343 hist 0 1000 50;
#X obj 273 68 tgl 15 0 empty empty empty 17 7 0 10 -262144 -1 -1 0
1;
#X obj 144 116 hip~ 300;
#X obj 144 139 lop~ 700;
#X obj 94 170 bp~ 300 2;
#X obj 187 169 bp~ 700 2;
#X obj 336 215 abs;
#X obj 419 214 abs;
#X obj 336 190 env~ 8192;
#X obj 419 189 env~ 8192;
#X text 471 120 << F2 range;
#X obj 383 109 hip~ 800;
#X obj 383 132 lop~ 2400;
#X obj 336 163 bp~ 800 2;
#X obj 419 162 bp~ 2400 2;
#X obj 392 259 /;
#X obj 392 342 hist 500 2700 50;
#N canvas 631 218 649 300 metroHisto 0;
#X obj 188 89 tgl 15 0 empty empty empty 17 7 0 10 -262144 -1 -1 0
1;
#X msg 133 111 clear;
#X msg 186 136 relative;
#X obj 186 111 metro 50;
#X obj 134 164 outlet;
#X obj 186 164 outlet;
#X obj 188 66 inlet;
#X obj 247 64 inlet;
#X obj 247 90 bng 15 250 50 0 empty empty empty 17 7 0 10 -262144 -1
-1;
#X text 36 15 Activate and Deactivate the metro for an histogram;
#X text 185 39 Metro;
#X text 240 39 Snapshot;
#X connect 0 0 3 0;
#X connect 0 0 1 0;
#X connect 1 0 4 0;
#X connect 2 0 5 0;
#X connect 3 0 2 0;
#X connect 6 0 0 0;
#X connect 7 0 8 0;
#X connect 8 0 2 0;
#X restore 252 307 pd metroHisto;
#X obj 124 371 s out1;
#X obj 393 370 s out2;
#X text 359 -5 << 1 / 0;
#X obj 336 83 s Continous;
#X obj 252 284 r Continous;
#X obj 230 83 *~;
#X obj 229 45 inlet~;
#X obj 340 51 inlet;
#X text 179 374 F1 hist out;
#X text 317 370 F2 hist out;
#X obj 134 316 s dataF1;
#X obj 413 312 s dataF2;
#X obj 273 126 s Clear;
#X obj 50 326 r Clear;
#X obj 490 312 r Clear;
#X obj 392 286 * 1600;
#X connect 1 0 3 0;
#X connect 2 0 3 1;
#X connect 3 0 6 0;
#X connect 4 0 1 0;
#X connect 5 0 2 0;
#X connect 6 0 35 0;
#X connect 6 0 7 0;
#X connect 7 0 25 0;
#X connect 8 0 28 0;
#X connect 8 0 30 1;
#X connect 8 0 37 0;
#X connect 9 0 10 0;
#X connect 10 0 11 0;
#X connect 10 0 12 0;
#X connect 11 0 4 0;
#X connect 12 0 5 0;
#X connect 13 0 22 0;
#X connect 14 0 22 1;
#X connect 15 0 13 0;
#X connect 16 0 14 0;
#X connect 18 0 19 0;
#X connect 19 0 20 0;
#X connect 19 0 21 0;
#X connect 20 0 15 0;
#X connect 21 0 16 0;
#X connect 22 0 40 0;
#X connect 23 0 26 0;
#X connect 24 0 7 0;
#X connect 24 0 23 0;
#X connect 24 1 7 0;
#X connect 24 1 23 0;
#X connect 29 0 24 0;
#X connect 30 0 9 0;
#X connect 30 0 18 0;
#X connect 31 0 30 0;
#X connect 32 0 8 0;
#X connect 38 0 7 0;
#X connect 39 0 23 0;
#X connect 40 0 23 0;
#X connect 40 0 36 0;
#X restore -68 82 pd histoFormant;
#X obj 19 44 inlet;
#X obj -68 43 inlet~;
#X text 58 32 << 1 / 0;
#X obj 115 133 r dataF1;
#X obj 294 131 r dataF2;
#X obj 207 101 r Clear;
#X msg 207 126 Clear;
#X connect 0 0 14 0;
#X connect 0 0 36 0;
#X connect 1 0 35 0;
#X connect 1 0 34 0;
#X connect 4 0 8 0;
#X connect 5 0 9 0;
#X connect 6 0 10 0;
#X connect 7 0 11 0;
#X connect 14 0 2 0;
#X connect 17 0 0 1;
#X connect 17 0 1 1;
#X connect 17 0 35 1;
#X connect 17 0 36 1;
#X connect 22 0 26 0;
#X connect 23 0 27 0;
#X connect 24 0 28 0;
#X connect 25 0 29 0;
#X connect 34 0 3 0;
#X connect 35 0 19 0;
#X connect 35 1 18 0;
#X connect 36 0 21 0;
#X connect 36 1 20 0;
#X connect 38 0 37 1;
#X connect 39 0 37 0;
#X connect 41 0 0 0;
#X connect 42 0 1 0;
#X connect 43 0 44 0;
