#N canvas 265 47 384 198 10;
#X floatatom 129 -345 5 0 0 0 - - -;
#X obj 129 -324 mtof;
#X text 202 -369 <= Frequency estimator;
#X text 204 -345 <= Frequency (MIDI);
#X text 204 -325 <= MIDI to Hz conversion;
#X floatatom 129 -301 5 0 0 0 - - -;
#X obj 128 -390 inlet~;
#X obj 45 -274 outlet~ \$1;
#X text 41 -258 Sound Signal;
#X obj 129 -274 outlet \$2;
#X floatatom 211 -298 5 0 0 0 - - -;
#X obj 211 -274 outlet \$3;
#X text 208 -257 Amplitude dB;
#X text 124 -257 Frequency Hz;
#X obj 129 -367 fiddle~;
#X connect 0 0 1 0;
#X connect 1 0 5 0;
#X connect 5 0 9 0;
#X connect 6 0 7 0;
#X connect 6 0 14 0;
#X connect 10 0 11 0;
#X connect 14 0 0 0;
#X connect 14 3 10 0;
#X coords 0 198 1 197 300 300 0;
