#N canvas 433 99 807 466 10;
#X obj 341 173 bng 15 250 50 0 empty empty empty 17 7 0 10 -262144
-1 -1;
#X msg 388 219 start;
#X obj 267 265 readsf~ 2;
#X obj 281 109 bng 15 250 50 0 empty empty empty 17 7 0 10 -262144
-1 -1;
#X text 79 231 Load Audio File >>;
#X text 468 194 << delay for start the readfs after open WAV file;
#X text 468 222 << start readfs~;
#X obj 281 139 openpanel;
#X obj 213 202 symbol \$1;
#X msg 213 228 open \$1;
#X obj 245 296 outlet~;
#X obj 303 295 outlet~;
#X text 332 60 << Enter a Bang;
#X obj 281 60 inlet;
#X obj 281 85 sel 1;
#X msg 433 145 stop;
#X text 470 144 << stop readfs~;
#X text 67 204 Save file to open >>;
#X text 61 141 Open file dialogue >>;
#X text 59 86 Select if start or stop readfs >>;
#X obj 388 195 delay 500;
#X obj 479 37 inlet;
#X text 516 39 << Enter value 1 or 0;
#X text 340 -17 preRecAudio~;
#X text 507 105 << Enter value 1 or 0;
#X text 105 263 create 2 channel output;
#X obj 445 104 select 0 1;
#X obj 464 78 +;
#X msg 448 57 0;
#X msg 445 250 0;
#X obj 445 286 outlet;
#X text 495 289 comment;
#X connect 0 0 8 0;
#X connect 0 0 20 0;
#X connect 1 0 2 0;
#X connect 2 0 10 0;
#X connect 2 1 11 0;
#X connect 2 2 28 0;
#X connect 3 0 7 0;
#X connect 7 0 8 0;
#X connect 7 0 0 0;
#X connect 8 0 9 0;
#X connect 9 0 2 0;
#X connect 13 0 14 0;
#X connect 14 0 3 0;
#X connect 14 1 15 0;
#X connect 15 0 2 0;
#X connect 20 0 1 0;
#X connect 21 0 27 1;
#X connect 26 0 29 0;
#X connect 26 1 0 0;
#X connect 27 0 26 0;
#X connect 28 0 27 0;
#X connect 29 0 30 0;
