#N canvas 13 26 1362 685 10;
#N canvas 0 0 450 300 (subpatch) 0;
#X array Formant1 50 float 5;
#A 0 0 0 0 0 0 0 0 0 0 0 0 0 0 0 0 0 0 0 0 0 0 0 0 0 0 0 0 0 0 0 0
0 0 0 0 0 0 0 0 0 0 0 0 0 0 0 0 0 0 0;
#X coords 0 1 49 0 200 140 1 0 0;
#X restore 30 116 graph;
#N canvas 0 0 450 300 (subpatch) 0;
#X array Formant2 50 float 5;
#A 0 0 0 0 0 0 0 0 0 0 0 0 0 0 0 0 0 0 0 0 0 0 0 0 0 0 0 0 0 0 0 0
0 0 0 0 0 0 0 0 0 0 0 0 0 0 0 0 0 0 0;
#X coords 0 1 49 0 200 140 1 0 0;
#X restore 31 360 graph;
#X obj 850 68 frequencyAndAmplitude~;
#X obj 988 30 *~;
#X obj 989 -20 adc~;
#X text 120 34 Microphone;
#X text 91 23 Recorded Speech;
#X obj 1003 0 r BangMicrophone;
#X obj 723 6 *~;
#X obj -97 51 s LevelVolumeAudio;
#X obj 711 -19 r LevelVolumeAudio;
#X obj 185 23 vradio 15 1 1 2 empty empty empty 0 -8 0 10 -262144 -1
-1 1;
#X text 833 -4 Enter Recorded Audio;
#X text 986 -46 Enter Microphone;
#N canvas 652 110 450 300 audioInput 0;
#X obj 20 -78 select 0 1;
#X obj 145 -116 s BangRecorderAudio;
#X obj 129 9 s BangMicrophone;
#X msg 152 -22 1;
#X msg 149 -55 0;
#X msg 178 -56 1;
#X msg 182 -22 0;
#X obj 20 -105 inlet;
#X text 14 45 In Inlet \, when the value is ZERO;
#X text 15 58 Open Recorded Audio.;
#X text 15 73 When the value is ONE;
#X text 15 88 Open the microphone entry;
#X connect 0 0 5 0;
#X connect 0 0 6 0;
#X connect 0 1 3 0;
#X connect 0 1 4 0;
#X connect 3 0 2 0;
#X connect 4 0 1 0;
#X connect 5 0 1 0;
#X connect 6 0 2 0;
#X connect 7 0 0 0;
#X restore 185 -33 pd audioInput;
#X text 709 -39 Out Audio;
#X floatatom 34 294 5 0 0 0 - - -;
#X obj -66 254 r AverageF1;
#X floatatom 32 533 5 0 0 0 - - -;
#X obj -58 493 r AverageF2;
#X text 29 512 Average F2;
#X text 27 272 Average F1;
#X obj 545 52 r VocalTrack;
#X floatatom 430 49 5 0 0 0 - - -;
#X text 360 49 Vocal Track;
#X text 353 32 ----------------------;
#X text 352 62 ----------------------;
#X text 354 43 -;
#X text 354 52 -;
#X text 462 50 cm;
#X text 353 24 Start Measuring Vocal Track;
#X obj 544 72 s bangLenghtVocalTrack;
#X obj 494 51 tgl 15 0 empty empty empty 17 7 0 10 -262144 -1 -1 0
1;
#X obj 544 34 r endLenghtVocalTrack;
#X text 479 44 -;
#X text 479 53 -;
#X obj 24 70 tgl 15 0 empty empty empty 17 7 0 10 -262144 -1 -1 0 1
;
#X text 42 70 Continous;
#X obj -92 24 s graphContinous;
#X obj 807 222 bng 15 250 50 0 empty empty empty 17 7 0 10 -262144
-1 -1;
#X obj 825 244 s actGraph;
#X text 825 222 Refresh;
#X obj 106 70 bng 15 250 50 0 empty empty empty 17 7 0 10 -262144 -1
-1;
#X text 124 70 Clear Graphs;
#X obj -78 104 s cleargraph;
#X text 26 254 0;
#X text 120 256 500;
#X text 216 254 1000;
#X obj 357 82 tgl 15 0 empty empty empty 17 7 0 10 -262144 -1 -1 0
1;
#X text 377 80 Test Un/Voiced Segments;
#N canvas 0 0 450 300 (subpatch) 0;
#X array Voice_Segment_Duration 50 float 5;
#A 0 0 0 0 0 0 0 0 0 0 0 0 0 0 0 0 0 0 0 0 0 0 0 0 0 0 0 0 0 0 0 0
0 0 0 0 0 0 0 0 0 0 0 0 0 0 0 0 0 0 0;
#X coords 0 0.5 49 0 200 140 1 0 0;
#X restore 310 117 graph;
#N canvas 0 0 450 300 (subpatch) 0;
#X array Unvoice_Segment_Duration 50 float 5;
#A 0 0 0 0 0 0 0 0 0 0 0 0 0 0 0 0 0 0 0 0 0 0 0 0 0 0 0 0 0 0 0 0
0 0 0 0 0 0 0 0 0 0 0 0 0 0 0 0 0 0 0;
#X coords 0 0.5 49 0 200 140 1 0 0;
#X restore 309 360 graph;
#X floatatom 427 270 4 0 0 0 - - -;
#X text 462 270 seconds;
#X text 305 269 Total Time Voiced :;
#X obj 527 253 r totalVoiceTime;
#X floatatom 430 513 5 0 0 0 - - -;
#X text 465 513 seconds;
#X text 303 512 Total Time Unvoiced :;
#X obj 530 514 r totalUnvoiceTime;
#X obj 128 -34 loadbang;
#X msg 128 -9 1;
#X obj 201 23 tgl 15 0 empty empty empty 17 7 0 10 -262144 -1 -1 0
1;
#X text 221 21 Loop;
#X obj 201 -7 s loopAudio;
#X obj 278 -33 r cleargraph;
#X msg 278 -7 0;
#X obj 558 411 r cleargraph;
#X msg 558 437 0;
#X obj -77 406 r cleargraph;
#X msg -77 432 0;
#X obj 22 23 myoutput~;
#X text 307 288 Avg Time;
#X floatatom 310 308 4 0 0 0 - - -;
#X obj 528 274 r averageVoiced;
#X obj 661 530 r averageUnvoiced;
#X text 307 531 Avg Time;
#X floatatom 310 552 4 0 0 0 - - -;
#X text 337 309 ms;
#X text 335 554 ms;
#X text 112 293 Population;
#X text 111 315 Sample;
#X floatatom 178 292 5 0 0 0 - - -;
#X floatatom 178 316 5 0 0 0 - - -;
#X text 107 272 Standart Deviation F1;
#X obj -68 277 r popStdF1;
#X obj -68 301 r sampleStdF1;
#X text 116 532 Population;
#X text 115 554 Sample;
#X floatatom 182 531 5 0 0 0 - - -;
#X floatatom 182 555 5 0 0 0 - - -;
#X text 111 511 Standart Deviation F2;
#X obj -66 515 r popStdF2;
#X obj -65 539 r sampleStdF2;
#X text 391 306 Population;
#X text 390 325 Sample;
#X floatatom 457 305 5 0 0 0 - - -;
#X floatatom 457 326 5 0 0 0 - - -;
#X obj 530 316 r SampleStdV;
#X obj 530 294 r popStdV;
#X text 390 550 Population;
#X text 389 569 Sample;
#X floatatom 456 549 5 0 0 0 - - -;
#X floatatom 456 570 5 0 0 0 - - -;
#X text 391 530 Standart Deviation V;
#X obj 660 552 r popStdUV;
#X obj 659 575 r SampleStdUV;
#X text 492 307 ms;
#X text 386 289 Standart Deviation V;
#X text 492 327 ms;
#X text 500 549 ms;
#X text 499 572 ms;
#X text 22 498 500;
#X msg -79 129 0;
#X text 216 498 2900;
#N canvas 879 227 450 300 calcVocalTrack 0;
#X obj 109 161 s VocalTrack;
#X obj 172 69 r bangLenghtVocalTrack;
#X obj 172 135 s endLenghtVocalTrack;
#X obj 109 104 vocalTrack~;
#X obj 109 66 inlet;
#X connect 1 0 3 1;
#X connect 3 0 0 0;
#X connect 3 1 2 0;
#X connect 4 0 3 0;
#X restore 914 100 pd calcVocalTrack;
#N canvas 853 194 450 313 voice 0;
#X obj 75 149 tabset Voice_Segment_Duration;
#X obj 63 174 tabset Unvoice_Segment_Duration;
#X obj 181 101 s totalVoiceTime;
#X obj 168 125 s totalUnvoiceTime;
#X obj 74 80 voicedtime~;
#X obj 88 215 s averageUnvoiced;
#X obj 100 194 s averageVoiced;
#X obj 138 241 s popStdUV;
#X obj 204 242 s SampleStdUV;
#X obj 309 238 s popStdV;
#X obj 306 214 s SampleStdV;
#X obj 73 25 inlet~;
#X obj 137 31 r testVoice;
#X connect 4 0 1 0;
#X connect 4 1 0 0;
#X connect 4 2 5 0;
#X connect 4 3 6 0;
#X connect 4 4 7 0;
#X connect 4 5 8 0;
#X connect 4 6 9 0;
#X connect 4 7 10 0;
#X connect 4 8 3 0;
#X connect 4 9 2 0;
#X connect 11 0 4 0;
#X connect 12 0 4 1;
#X restore 851 101 pd voice;
#X obj 555 101 s testVoice;
#N canvas 744 248 471 300 formant 0;
#X obj 57 163 tabset Formant1;
#X obj 56 185 tabset Formant2;
#X obj 151 162 s AverageF1;
#X obj 149 183 s AverageF2;
#X obj 220 86 r graphContinous;
#X obj 145 132 checkformant~;
#X obj 227 162 s popStdF1;
#X obj 228 186 s sampleStdF1;
#X obj 313 161 s popStdF2;
#X obj 314 185 s sampleStdF2;
#X obj 144 38 inlet~;
#X connect 4 0 5 1;
#X connect 5 0 0 0;
#X connect 5 1 1 0;
#X connect 5 2 2 0;
#X connect 5 3 3 0;
#X connect 5 4 6 0;
#X connect 5 5 7 0;
#X connect 5 6 8 0;
#X connect 5 7 9 0;
#X connect 10 0 5 0;
#X restore 778 100 pd formant;
#N canvas 747 24 450 300 clear 0;
#X obj -359 -1 r cleargraph;
#X obj -291 132 tabset Formant1;
#X obj -405 137 tabset Formant2;
#X msg -392 69 absolute;
#X obj -448 197 tabset Unvoice_Segment_Duration;
#X obj -296 165 tabset Voice_Segment_Duration;
#X obj -359 41 bng 15 250 50 0 empty empty empty 17 7 0 10 -262144
-1 -1;
#X obj -392 91 hist 0 1 1;
#X msg -308 78 absolute;
#X obj -308 100 hist 0 1 1;
#X connect 0 0 6 0;
#X connect 3 0 7 0;
#X connect 6 0 3 0;
#X connect 6 0 8 0;
#X connect 7 0 2 0;
#X connect 7 0 4 0;
#X connect 8 0 9 0;
#X connect 9 0 1 0;
#X connect 9 0 5 0;
#X restore 851 132 pd clear;
#N canvas 857 274 450 300 loadaudio 0;
#X obj 133 89 preRecAudio~;
#X obj 228 86 *~;
#X obj 133 32 r BangRecorderAudio;
#X obj 142 60 r loopAudio;
#X obj 229 125 outlet~;
#X obj 119 125 s stopAutoAudio;
#X connect 0 0 1 0;
#X connect 0 1 1 0;
#X connect 0 2 5 0;
#X connect 1 0 4 0;
#X connect 2 0 1 1;
#X connect 2 0 0 0;
#X connect 3 0 0 1;
#X restore 851 14 pd loadaudio;
#X obj -87 154 r stopAutoAudio;
#X obj 632 115 r cleargraph;
#X msg 632 141 0;
#X obj 565 568 i;
#X obj 582 541 i;
#X obj 557 543 i;
#X obj 532 128 r stopAutoAudio;
#X obj 234 93 clock;
#X text 112 498 1500;
#X connect 2 0 8 0;
#X connect 2 0 116 0;
#X connect 2 0 118 0;
#X connect 2 1 115 0;
#X connect 3 0 2 0;
#X connect 4 0 3 0;
#X connect 7 0 3 1;
#X connect 8 0 71 0;
#X connect 8 0 71 1;
#X connect 10 0 8 1;
#X connect 11 0 14 0;
#X connect 17 0 16 0;
#X connect 19 0 18 0;
#X connect 22 0 23 0;
#X connect 32 0 31 0;
#X connect 33 0 32 0;
#X connect 36 0 38 0;
#X connect 36 0 128 0;
#X connect 39 0 40 0;
#X connect 42 0 44 0;
#X connect 42 0 113 0;
#X connect 48 0 117 0;
#X connect 55 0 52 0;
#X connect 59 0 56 0;
#X connect 60 0 61 0;
#X connect 61 0 11 0;
#X connect 62 0 64 0;
#X connect 65 0 66 0;
#X connect 66 0 48 0;
#X connect 67 0 68 0;
#X connect 68 0 52 0;
#X connect 68 0 56 0;
#X connect 68 0 97 0;
#X connect 68 0 96 0;
#X connect 68 0 102 0;
#X connect 68 0 103 0;
#X connect 68 0 73 0;
#X connect 68 0 77 0;
#X connect 69 0 70 0;
#X connect 70 0 16 0;
#X connect 70 0 18 0;
#X connect 70 0 82 0;
#X connect 70 0 83 0;
#X connect 70 0 89 0;
#X connect 70 0 90 0;
#X connect 71 0 9 0;
#X connect 74 0 73 0;
#X connect 75 0 126 0;
#X connect 85 0 82 0;
#X connect 86 0 83 0;
#X connect 92 0 89 0;
#X connect 93 0 90 0;
#X connect 98 0 97 0;
#X connect 99 0 96 0;
#X connect 105 0 125 0;
#X connect 106 0 124 0;
#X connect 113 0 36 0;
#X connect 113 0 128 1;
#X connect 120 0 2 0;
#X connect 121 0 36 0;
#X connect 122 0 123 0;
#X connect 123 0 23 0;
#X connect 124 0 103 0;
#X connect 125 0 102 0;
#X connect 126 0 77 0;
#X connect 127 0 48 0;
#X coords 0 -1 1 1 500 570 2 20 20;
