#N canvas 470 15 647 439 10;
#X floatatom 298 190 5 0 0 0 - - -;
#N canvas 0 15 519 416 sum_pow_x_minus_xmean 0;
#X floatatom 136 113 5 0 0 0 - - -;
#X floatatom 176 112 5 0 0 0 - - -;
#N canvas 452 58 450 300 mean 0;
#X obj 171 88 +;
#X floatatom 207 93 8 0 0 0 - - -;
#X floatatom 83 170 5 0 0 0 - - -;
#X obj 83 101 bng 15 250 50 0 empty empty empty 17 7 0 10 -262144 -1
-1;
#X msg 83 124 1;
#X obj 83 147 +;
#X msg 313 91 0;
#X obj 190 183 /;
#X obj 134 99 bng 15 250 50 0 empty empty empty 17 7 0 10 -262144 -1
-1;
#X obj 87 49 inlet;
#X obj 311 11 inlet;
#X obj 190 212 outlet;
#X text 161 212 mean;
#X text 350 13 reset values;
#X text 41 49 number;
#X obj 83 210 outlet;
#X text 22 210 Cant data;
#X obj 294 214 outlet;
#X text 240 214 sumvalue;
#X obj 160 49 pow 2;
#X obj 208 49 +;
#X floatatom 234 51 8 0 0 0 - - -;
#X obj 398 214 outlet;
#X text 351 214 sum pow;
#X obj 361 72 loadbang;
#X obj 134 124 t b b;
#X obj 311 64 bng 15 250 50 0 empty empty empty 17 7 0 10 -262144 -1
-1;
#X obj 311 43 spigot;
#X floatatom 270 34 5 0 0 0 - - -;
#X obj 341 71 bng 15 250 50 0 empty empty empty 17 7 0 10 -262144 -1
-1;
#X connect 0 0 1 0;
#X connect 1 0 0 1;
#X connect 1 0 7 0;
#X connect 1 0 17 0;
#X connect 2 0 5 1;
#X connect 2 0 7 1;
#X connect 2 0 15 0;
#X connect 3 0 4 0;
#X connect 4 0 5 0;
#X connect 5 0 2 0;
#X connect 6 0 1 0;
#X connect 6 0 2 0;
#X connect 6 0 21 0;
#X connect 7 0 11 0;
#X connect 8 0 25 0;
#X connect 9 0 3 0;
#X connect 9 0 0 0;
#X connect 9 0 8 0;
#X connect 9 0 19 0;
#X connect 10 0 27 1;
#X connect 10 0 28 0;
#X connect 10 0 27 0;
#X connect 19 0 20 0;
#X connect 20 0 21 0;
#X connect 21 0 20 1;
#X connect 21 0 22 0;
#X connect 24 0 6 0;
#X connect 25 0 2 0;
#X connect 25 1 1 0;
#X connect 26 0 6 0;
#X connect 27 0 26 0;
#X connect 27 0 29 0;
#X connect 29 0 6 0;
#X restore 190 74 pd mean;
#X floatatom 214 112 5 0 0 0 - - -;
#X floatatom 258 113 5 0 0 0 - - -;
#X obj 162 143 pow 2;
#X obj 147 190 *;
#X floatatom 147 213 5 0 0 0 - - -;
#X obj 203 157 * 2;
#X obj 228 203 *;
#X floatatom 228 226 5 0 0 0 - - -;
#X obj 174 236 +;
#X obj 213 320 -;
#X floatatom 213 347 5 0 0 0 - - -;
#X obj 160 37 inlet;
#X obj 229 38 inlet;
#X text 112 35 Value;
#X text 272 37 reset values;
#X obj 213 376 outlet;
#X text 260 377 sum(x - xmean) ^ 2;
#X obj 135 377 outlet;
#X floatatom 214 181 5 0 0 0 - - -;
#X floatatom 162 167 5 0 0 0 - - -;
#X obj 83 77 t b b b;
#X obj 337 95 t b b b;
#X obj 346 158 t b b;
#X floatatom 174 268 5 0 0 0 - - -;
#X text 70 380 Count Data;
#X obj 412 376 outlet;
#X text 462 379 mean;
#X connect 0 0 6 0;
#X connect 0 0 20 0;
#X connect 1 0 5 0;
#X connect 1 0 8 0;
#X connect 2 0 0 0;
#X connect 2 1 1 0;
#X connect 2 1 28 0;
#X connect 2 2 3 0;
#X connect 2 3 4 0;
#X connect 3 0 9 1;
#X connect 4 0 11 1;
#X connect 5 0 22 0;
#X connect 6 0 7 0;
#X connect 7 0 11 0;
#X connect 8 0 21 0;
#X connect 9 0 10 0;
#X connect 10 0 12 1;
#X connect 11 0 26 0;
#X connect 12 0 13 0;
#X connect 13 0 18 0;
#X connect 14 0 2 0;
#X connect 14 0 23 0;
#X connect 15 0 2 1;
#X connect 21 0 9 0;
#X connect 22 0 6 1;
#X connect 23 0 22 0;
#X connect 23 1 0 0;
#X connect 23 2 24 0;
#X connect 24 0 7 0;
#X connect 24 1 4 0;
#X connect 24 2 25 0;
#X connect 25 0 26 0;
#X connect 25 1 10 0;
#X connect 26 0 12 0;
#X restore 157 151 pd sum_pow_x_minus_xmean;
#X floatatom 157 176 5 0 0 0 - - -;
#X obj 238 240 /;
#X obj 123 213 bng 15 250 50 0 empty empty empty 17 7 0 10 -262144
-1 -1;
#X floatatom 238 265 5 0 0 0 - - -;
#X obj 157 203 - 1;
#X obj 238 286 sqrt;
#X floatatom 238 376 5 0 0 0 - - -;
#X obj 157 92 inlet;
#X obj 296 100 inlet;
#X obj 238 407 outlet;
#X text 74 92 Enter Data >>;
#X text 338 100 << Bang for reset;
#X text 144 28 STANDART DESVIATION - STD;
#X text 282 407 << Sample Standard Deviation;
#X obj 182 239 /;
#X floatatom 182 264 5 0 0 0 - - -;
#X obj 182 285 sqrt;
#X floatatom 182 375 5 0 0 0 - - -;
#X obj 182 406 outlet;
#X text -6 406 Populatio Standard Deviation >>;
#X floatatom 238 311 5 0 0 0 - - -;
#X floatatom 182 310 5 0 0 0 - - -;
#X obj 154 337 moses 1;
#X obj 238 339 moses 1;
#X obj 486 406 outlet;
#X text 532 406 Average;
#X connect 0 0 3 0;
#X connect 0 0 16 0;
#X connect 1 0 2 0;
#X connect 1 1 0 0;
#X connect 1 2 26 0;
#X connect 2 0 6 0;
#X connect 2 0 16 1;
#X connect 3 0 5 0;
#X connect 4 0 16 0;
#X connect 4 0 3 0;
#X connect 5 0 7 0;
#X connect 6 0 3 1;
#X connect 7 0 22 0;
#X connect 8 0 11 0;
#X connect 9 0 4 0;
#X connect 9 0 1 0;
#X connect 10 0 1 1;
#X connect 16 0 17 0;
#X connect 17 0 18 0;
#X connect 18 0 23 0;
#X connect 19 0 20 0;
#X connect 22 0 25 0;
#X connect 23 0 24 0;
#X connect 24 1 19 0;
#X connect 25 1 8 0;
