#N canvas 443 71 782 429 10;
#X obj 237 110 sig~ 4;
#X obj 285 111 sig~;
#X obj 260 154 *~;
#X obj 213 193 /~;
#X obj 214 263 snapshot~;
#X floatatom 214 288 5 0 0 0 - - -;
#X obj 242 239 bang~;
#X obj 166 166 *~;
#X obj 165 110 sig~ 34300;
#X obj 213 218 /~ 10;
#X obj 285 85 inlet;
#X text 256 67 Enter Frequency;
#X text 330 83 << Hz enter;
#X text 329 110 << Convert number in signal;
#X text 15 111 Speed of sounf in air >>;
#X obj 214 377 outlet;
#X obj 515 84 inlet;
#X text 501 62 Bang Activator;
#X obj 214 321 spigot;
#X obj 497 247 int 0;
#X obj 546 248 + 1;
#X msg 459 247 stop;
#X msg 559 210 0;
#X msg 422 304 0;
#X msg 423 262 1;
#X obj 422 349 outlet;
#X text 20 218 Convert lenght from m to cm >>;
#X text 102 378 Output Lenght >>;
#X text 468 348 << Output Send ZERO at the end;
#X text 381 10 vocaltrack~;
#X text 79 347 Adjust the value >>;
#X obj 322 347 std;
#X obj 214 347 average 30;
#X obj 493 208 metro 1000;
#X obj 397 171 bng 15 250 50 0 empty empty empty 17 7 0 10 -262144
-1 -1;
#X obj 554 155 bng 15 250 50 0 empty empty empty 17 7 0 10 -262144
-1 -1;
#X obj 518 124 select 0 1;
#X obj 470 181 bng 15 250 50 0 empty empty empty 17 7 0 10 -262144
-1 -1;
#X obj 497 286 select 10;
#X obj 182 135 sig~ 3;
#X connect 0 0 2 0;
#X connect 1 0 2 1;
#X connect 2 0 3 1;
#X connect 3 0 9 0;
#X connect 4 0 5 0;
#X connect 5 0 18 0;
#X connect 6 0 4 0;
#X connect 7 0 3 0;
#X connect 8 0 7 0;
#X connect 9 0 4 0;
#X connect 10 0 1 0;
#X connect 16 0 34 0;
#X connect 16 0 31 1;
#X connect 16 0 36 0;
#X connect 18 0 31 0;
#X connect 19 0 38 0;
#X connect 20 0 19 1;
#X connect 21 0 33 0;
#X connect 22 0 19 1;
#X connect 23 0 25 0;
#X connect 23 0 18 1;
#X connect 24 0 18 1;
#X connect 31 2 15 0;
#X connect 33 0 19 0;
#X connect 34 0 24 0;
#X connect 35 0 22 0;
#X connect 35 0 33 0;
#X connect 36 0 37 0;
#X connect 36 1 35 0;
#X connect 37 0 21 0;
#X connect 37 0 23 0;
#X connect 38 0 21 0;
#X connect 38 0 23 0;
#X connect 38 1 20 0;
#X connect 39 0 7 1;
