#N canvas 485 188 450 300 12;
#X obj 180 175 vocaltrack~;
#X text 158 5 VOCALTRACK~ HELP;
#X obj 179 80 adc~;
#X obj 180 113 fiddle;
#X obj 180 142 mtof;
#X obj 254 139 tgl 15 0 empty empty empty 17 7 0 10 -262144 -1 -1 1
1;
#X floatatom 180 212 5 0 0 0 - - -;
#X obj 254 214 bng 15 250 50 0 empty empty empty 17 7 0 10 -262144
-1 -1;
#X text 110 167 Enter Hz;
#X text 265 162 Enter 1 or 0 for activate;
#X text 58 212 Result of lenght;
#X text 277 215 Send a bang at the end;
#X text 78 37 Vocal track collect data for 15 seconds;
#X text 80 53 and response with the average of the vocal track;
#X connect 0 0 6 0;
#X connect 0 1 7 0;
#X connect 2 0 3 0;
#X connect 2 1 3 0;
#X connect 3 0 4 0;
#X connect 4 0 0 0;
#X connect 5 0 0 1;
