#N canvas 128 0 1132 638 10;
#N canvas 894 129 450 300 voxdetect 0;
#X obj 108 122 voicing_detector~;
#X obj 108 65 inlet~;
#X obj 265 90 block~ 1024;
#X obj 222 61 inlet;
#X obj 232 196 outlet~;
#X obj 108 204 outlet;
#X text 33 161 1=voiced;
#X text 33 180 0=unvoiced;
#X text 220 42 threshold (0-100);
#X obj 168 66 inlet;
#X obj 108 163 +;
#X text 33 143 2=silence;
#X connect 0 0 10 0;
#X connect 1 0 0 0;
#X connect 1 0 4 0;
#X connect 3 0 0 1;
#X connect 9 0 10 1;
#X connect 10 0 5 0;
#X restore 181 150 pd voxdetect;
#X floatatom 316 131 5 0 0 0 - - -;
#X obj 316 54 vsl 20 60 0 100 0 0 empty empty empty 0 -9 0 10 -262144
-1 -1 1180 1;
#X floatatom 181 178 5 0 0 0 - - -;
#X obj 181 208 select 0 1;
#X obj 316 -9 loadbang;
#X msg 316 21 20;
#X obj 186 -31 fiddle~;
#X floatatom 186 18 5 0 0 0 - - -;
#X msg 249 -2 0;
#X obj 186 55 select 0;
#X msg 186 84 2;
#X msg 239 84 0;
#X floatatom 424 160 10 0 0 0 - - -;
#X floatatom 154 277 5 0 0 0 - - -;
#X floatatom 226 279 5 0 0 0 - - -;
#X obj 154 251 counter;
#X obj 226 251 counter;
#X msg 361 201 bang;
#X floatatom 178 332 5 0 0 0 - - -;
#X obj 178 304 +;
#X obj 141 348 /;
#X floatatom 141 374 5 0 0 0 - - -;
#X obj 232 349 /;
#X floatatom 232 373 5 0 0 0 - - -;
#X obj 425 184 s timer;
#X obj -106 -25 r timer;
#X obj 141 399 s voiceless;
#X obj 232 399 s voice;
#X obj -197 -24 r voiceless;
#X obj -37 -25 r voice;
#X obj -55 9 *;
#X obj -124 9 *;
#X floatatom -124 59 5 0 0 0 - - -;
#X floatatom -55 58 5 0 0 0 - - -;
#X obj -124 34 / 1000;
#X obj -55 34 / 1000;
#X obj -124 114 outlet;
#X obj -55 113 outlet;
#X text 1 112 voiced segments;
#X text -248 114 unvoiced segments;
#X text 263 279 times that voiced sound;
#X text -28 265 times that unvoiced sound;
#X text -174 137 both outlet are time in seconds;
#X obj 248 -31 metro 1000;
#X obj 127 -56 *~;
#X obj 471 89 bng 15 250 50 0 empty empty empty 17 7 0 10 -262144 -1
-1;
#X obj 524 107 bng 15 250 50 0 empty empty empty 17 7 0 10 -262144
-1 -1;
#X obj 122 -113 inlet~;
#N canvas 783 146 438 300 controltimer 0;
#X obj 184 178 metro 250;
#X obj 160 113 select 0 1;
#X msg 146 141 bang;
#X msg 218 142 stop;
#X obj 275 223 bng 15 250 50 0 empty empty empty 17 7 0 10 -262144
-1 -1;
#X msg 120 91 0;
#X msg 228 85 1;
#X obj 122 57 inlet;
#X obj 226 50 inlet;
#X obj 164 262 outlet;
#X obj 174 215 timer;
#X obj 32 59 inlet;
#X connect 0 0 4 0;
#X connect 0 0 10 1;
#X connect 1 0 3 0;
#X connect 1 1 2 0;
#X connect 2 0 0 0;
#X connect 3 0 0 0;
#X connect 5 0 1 0;
#X connect 6 0 1 0;
#X connect 7 0 5 0;
#X connect 8 0 6 0;
#X connect 10 0 9 0;
#X connect 11 0 10 0;
#X restore 422 127 pd controltimer;
#X obj 439 -45 s acttimers;
#X obj -368 98 r acttimers;
#N canvas 319 13 927 430 voiceGraphs 0;
#X obj 110 140 timer;
#X obj -41 63 select 0 1;
#X obj -137 144 metro 30;
#X obj -93 65 tgl 15 0 empty empty empty 17 7 0 10 -262144 -1 -1 0
1;
#X obj 170 137 timer;
#X msg -138 184 relative;
#X msg 62 203 relative;
#X msg -27 230 clear;
#X obj -38 31 inlet;
#X obj -94 29 inlet;
#X obj 58 336 outlet;
#X obj -103 335 outlet;
#X obj -32 195 select 1;
#X obj -158 338 outlet;
#X obj -13 335 outlet;
#X text -28 349 Average time Voiced;
#X text -171 353 Average time Unvoiced;
#X obj 289 298 std;
#X obj 133 381 outlet;
#X text 104 349 Pop STD UV;
#X obj 192 327 outlet;
#X text 169 349 Sample STD UV;
#X obj 267 333 outlet;
#X obj 330 336 outlet;
#X text 263 358 Pop STD V;
#X text 330 358 Sample STD V;
#X obj 124 298 std;
#X obj -135 232 hist 0 1500 100;
#X obj 54 232 hist 0 1500 100;
#X obj -27 274 r cleargraph;
#X connect 0 0 26 0;
#X connect 0 0 27 0;
#X connect 1 0 0 0;
#X connect 1 0 4 1;
#X connect 1 1 0 1;
#X connect 1 1 4 0;
#X connect 2 0 5 0;
#X connect 2 0 6 0;
#X connect 3 0 2 0;
#X connect 3 0 6 0;
#X connect 3 0 12 0;
#X connect 3 0 17 1;
#X connect 3 0 26 1;
#X connect 4 0 17 0;
#X connect 4 0 28 0;
#X connect 5 0 27 0;
#X connect 6 0 28 0;
#X connect 7 0 27 0;
#X connect 7 0 28 0;
#X connect 8 0 1 0;
#X connect 9 0 3 0;
#X connect 12 0 7 0;
#X connect 17 0 22 0;
#X connect 17 1 23 0;
#X connect 17 2 14 0;
#X connect 26 0 18 0;
#X connect 26 1 20 0;
#X connect 26 2 13 0;
#X connect 27 0 11 0;
#X connect 28 0 10 0;
#X connect 29 0 7 0;
#X restore -368 127 pd voiceGraphs;
#X obj -585 340 outlet;
#X obj -518 346 outlet;
#X text -607 363 Hist Unvoice;
#X text -517 371 Hist Voice;
#X obj 395 -111 inlet;
#X obj -124 87 i;
#X obj -55 87 i;
#X text -135 -117 voicedtime~;
#X obj -442 351 outlet;
#X obj -381 350 outlet;
#X text -442 373 AVG UV;
#X text -380 375 AVG V;
#X obj -328 352 outlet;
#X obj -277 354 outlet;
#X obj -225 312 outlet;
#X obj -185 314 outlet;
#X text -339 372 pop std UV;
#X text -286 385 Sample std UV;
#X text -234 337 pop std V;
#X text -175 341 Sample std V;
#X connect 0 0 3 0;
#X connect 1 0 0 2;
#X connect 2 0 1 0;
#X connect 3 0 4 0;
#X connect 3 0 52 1;
#X connect 4 0 16 0;
#X connect 4 1 17 0;
#X connect 5 0 6 0;
#X connect 5 0 9 0;
#X connect 6 0 2 0;
#X connect 7 0 8 0;
#X connect 8 0 10 0;
#X connect 9 0 8 0;
#X connect 10 0 11 0;
#X connect 10 1 12 0;
#X connect 11 0 0 1;
#X connect 11 0 46 0;
#X connect 12 0 0 1;
#X connect 12 0 47 0;
#X connect 13 0 25 0;
#X connect 14 0 20 0;
#X connect 14 0 21 0;
#X connect 15 0 20 1;
#X connect 15 0 23 0;
#X connect 16 0 14 0;
#X connect 17 0 15 0;
#X connect 18 0 16 2;
#X connect 18 0 17 2;
#X connect 18 0 49 0;
#X connect 19 0 21 1;
#X connect 19 0 23 1;
#X connect 20 0 19 0;
#X connect 21 0 22 0;
#X connect 22 0 27 0;
#X connect 23 0 24 0;
#X connect 24 0 28 0;
#X connect 26 0 32 1;
#X connect 26 0 31 0;
#X connect 29 0 32 0;
#X connect 30 0 31 1;
#X connect 31 0 36 0;
#X connect 32 0 35 0;
#X connect 33 0 58 0;
#X connect 34 0 59 0;
#X connect 35 0 33 0;
#X connect 36 0 34 0;
#X connect 44 0 9 0;
#X connect 45 0 0 0;
#X connect 45 0 7 0;
#X connect 46 0 49 1;
#X connect 47 0 49 2;
#X connect 48 0 45 0;
#X connect 49 0 13 0;
#X connect 51 0 52 0;
#X connect 52 0 61 0;
#X connect 52 1 53 0;
#X connect 52 2 62 0;
#X connect 52 3 54 0;
#X connect 52 4 65 0;
#X connect 52 5 66 0;
#X connect 52 6 67 0;
#X connect 52 7 68 0;
#X connect 57 0 45 1;
#X connect 57 0 44 0;
#X connect 57 0 9 0;
#X connect 57 0 50 0;
#X connect 57 0 18 0;
#X connect 58 0 37 0;
#X connect 59 0 38 0;
